<svg width="61" height="71" viewBox="0 0 61 71" fill="none" xmlns="http://www.w3.org/2000/svg">
<path d="M9.76284 6.03841C9.76587 6.02263 9.77143 6.01151 9.77955 6.00513L9.76284 6.03841C9.54923 7.14956 21.8608 31.3297 33.0121 45.2041L20.719 44.199L4.98491 15.5536L9.76284 6.03841Z" fill="url(#paint0_linear)"/>
<path d="M4.00146 53.2449L15.6397 53.2266V44.199L4.49319 39.6761L4.00146 53.2449Z" fill="url(#paint1_linear)"/>
<path d="M59.2128 58.3381L60.1581 57.9543L59.7429 56.9219L58.7977 57.3057L59.2128 58.3381Z" fill="#0D65BB"/>
<path d="M55.4224 56.7243L56.3676 56.3406L56.0044 55.4372L55.0591 55.821L55.4224 56.7243Z" fill="#0D65BB"/>
<path d="M54.5084 56.7951L54.8717 57.6985L53.9264 58.0822L53.5632 57.1788L54.5084 56.7951Z" fill="#0D65BB"/>
<path d="M52.2658 53.9526L52.6291 54.8559L51.6838 55.2396L51.3206 54.3363L52.2658 53.9526Z" fill="#0D65BB"/>
<path d="M51.2787 55.4041L51.6939 56.4365L50.8837 56.7654L50.4685 55.733L51.2787 55.4041Z" fill="#0D65BB"/>
<path d="M49.4608 56.7425L49.8241 57.6458L49.0138 57.9747L48.6506 57.0714L49.4608 56.7425Z" fill="#0D65BB"/>
<path d="M48.8492 52.4873L49.2125 53.3906L48.2672 53.7743L47.904 52.871L48.8492 52.4873Z" fill="#0D65BB"/>
<path d="M48.371 54.0324L48.7343 54.9358L47.654 55.3743L47.2907 54.471L48.371 54.0324Z" fill="#0D65BB"/>
<path d="M46.875 55.3903L47.2383 56.2936L46.4281 56.6225L46.0648 55.7192L46.875 55.3903Z" fill="#0D65BB"/>
<path d="M44.9221 56.7835L45.2334 57.5578L44.4232 57.8867L44.1119 57.1124L44.9221 56.7835Z" fill="#0D65BB"/>
<path d="M45.6195 51.0962L45.9828 51.9996L45.1726 52.3285L44.8093 51.4251L45.6195 51.0962Z" fill="#0D65BB"/>
<path d="M45.2764 52.5866L45.6396 53.4899L44.8294 53.8188L44.4662 52.9155L45.2764 52.5866Z" fill="#0D65BB"/>
<path d="M44.4762 54.1123L44.7876 54.8866L43.9774 55.2155L43.666 54.4412L44.4762 54.1123Z" fill="#0D65BB"/>
<path d="M42.8452 55.525L43.1566 56.2993L42.3464 56.6282L42.035 55.8539L42.8452 55.525Z" fill="#0D65BB"/>
<path d="M40.8404 56.7892L41.1517 57.5635L40.3415 57.8924L40.0302 57.1181L40.8404 56.7892Z" fill="#0D65BB"/>
<path d="M42.6287 49.9085L42.9401 50.6828L42.2649 50.9569L41.9535 50.1826L42.6287 49.9085Z" fill="#0D65BB"/>
<path d="M42.4206 51.344L42.7838 52.2474L42.1087 52.5214L41.7454 51.6181L42.4206 51.344Z" fill="#0D65BB"/>
<path d="M41.8905 52.7601L42.2018 53.5344L41.3916 53.8633L41.0803 53.089L41.8905 52.7601Z" fill="#0D65BB"/>
<path d="M40.7684 54.2664L41.0797 55.0407L40.2695 55.3696L39.9582 54.5953L40.7684 54.2664Z" fill="#0D65BB"/>
<path d="M39.2205 55.4952L39.5838 56.3986L38.7736 56.7275L38.4103 55.8241L39.2205 55.4952Z" fill="#0D65BB"/>
<path d="M37.2675 56.8885L37.6308 57.7919L36.9556 58.0659L36.5924 57.1626L37.2675 56.8885Z" fill="#0D65BB"/>
<path d="M39.9911 48.4272L40.3024 49.2015L39.6272 49.4756L39.3159 48.7013L39.9911 48.4272Z" fill="#0D65BB"/>
<path d="M39.9699 49.937L40.3331 50.8403L39.5229 51.1692L39.1597 50.2659L39.9699 49.937Z" fill="#0D65BB"/>
<path d="M39.4398 51.3531L39.8549 52.3855L39.0447 52.7144L38.6296 51.682L39.4398 51.3531Z" fill="#0D65BB"/>
<path d="M38.5046 52.9337L38.8678 53.837L38.0576 54.1659L37.6944 53.2626L38.5046 52.9337Z" fill="#0D65BB"/>
<path d="M37.4656 54.2561L37.8808 55.2885L36.9355 55.6722L36.5204 54.6398L37.4656 54.2561Z" fill="#0D65BB"/>
<path d="M35.9696 55.614L36.3329 56.5173L35.3877 56.901L35.0244 55.9977L35.9696 55.614Z" fill="#0D65BB"/>
<path d="M37.7273 47.0944L38.0905 47.9978L37.2803 48.3267L36.9171 47.4233L37.7273 47.0944Z" fill="#0D65BB"/>
<path d="M37.7061 48.6042L38.0693 49.5076L37.2591 49.8365L36.8959 48.9331L37.7061 48.6042Z" fill="#0D65BB"/>
<path d="M37.4148 50.2236L37.7781 51.127L36.8328 51.5107L36.4696 50.6073L37.4148 50.2236Z" fill="#0D65BB"/>
<path d="M36.6147 51.7494L36.9779 52.6527L36.1677 52.9816L35.8045 52.0782L36.6147 51.7494Z" fill="#0D65BB"/>
<path d="M35.7626 53.146L36.074 53.9203L35.2638 54.2492L34.9524 53.4749L35.7626 53.146Z" fill="#0D65BB"/>
<path d="M34.4536 54.5781L34.8168 55.4815L34.0066 55.8104L33.6434 54.907L34.4536 54.5781Z" fill="#0D65BB"/>
<path d="M33.1445 56.0102L33.4559 56.7845L32.7807 57.0586L32.4694 56.2843L33.1445 56.0102Z" fill="#0D65BB"/>
<path d="M34.2036 57.0815L34.5669 57.9848L33.7567 58.3137L33.3934 57.4104L34.2036 57.0815Z" fill="#0D65BB"/>
<path d="M32.1055 57.3327L32.4688 58.236L32.0637 58.4005L31.7004 57.4971L32.1055 57.3327Z" fill="#0D65BB"/>
<path d="M35.2035 47.0681L36.0137 46.7393L35.6504 45.8359L34.8402 46.1648L35.2035 47.0681Z" fill="#0D65BB"/>
<path d="M35.6811 47.4747L35.9925 48.249L35.1823 48.5779L34.8709 47.8036L35.6811 47.4747Z" fill="#0D65BB"/>
<path d="M35.338 48.9651L35.6493 49.7394L34.9741 50.0134L34.6628 49.2391L35.338 48.9651Z" fill="#0D65BB"/>
<path d="M34.8079 50.3812L35.1711 51.2845L34.3609 51.6134L33.9977 50.7101L34.8079 50.3812Z" fill="#0D65BB"/>
<path d="M34.0077 51.9069L34.371 52.8103L33.5608 53.1392L33.1975 52.2358L34.0077 51.9069Z" fill="#0D65BB"/>
<path d="M33.0206 53.3584L33.3839 54.2618L32.5737 54.5907L32.2104 53.6873L33.0206 53.3584Z" fill="#0D65BB"/>
<path d="M32.0336 54.8099L32.3449 55.5842L31.5347 55.9131L31.2234 55.1388L32.0336 54.8099Z" fill="#0D65BB"/>
<path d="M31.2334 56.3357L31.5448 57.11L31.1397 57.2744L30.8283 56.5001L31.2334 56.3357Z" fill="#0D65BB"/>
<path d="M33.3204 45.7974L34.6096 45.3806L33.6368 44.6451L33.0853 44.9257L33.3204 45.7974Z" fill="#0D65BB"/>
<path d="M33.8743 46.1065L34.2895 47.1389L33.3442 47.5226L32.9291 46.4902L33.8743 46.1065Z" fill="#0D65BB"/>
<path d="M33.5831 47.7259L33.9463 48.6293L33.0011 49.013L32.6378 48.1096L33.5831 47.7259Z" fill="#0D65BB"/>
<path d="M33.1049 49.2711L33.4681 50.1744L32.5229 50.5582L32.1596 49.6548L33.1049 49.2711Z" fill="#0D65BB"/>
<path d="M32.6267 50.8163L32.938 51.5906L31.9928 51.9743L31.6814 51.2L32.6267 50.8163Z" fill="#0D65BB"/>
<path d="M31.7746 52.2129L32.1379 53.1163L31.1927 53.5L30.8294 52.5967L31.7746 52.2129Z" fill="#0D65BB"/>
<path d="M30.9226 53.6096L31.2858 54.513L30.3406 54.8967L29.9773 53.9933L30.9226 53.6096Z" fill="#0D65BB"/>
<path d="M30.1743 55.2644L30.5376 56.1678L30.1325 56.3322L29.7692 55.4289L30.1743 55.2644Z" fill="#0D65BB"/>
<path d="M29.2503 54.1384L29.6135 55.0417L29.2084 55.2062L28.8452 54.3028L29.2503 54.1384Z" fill="#0D65BB"/>
<path d="M29.8635 52.5384L30.1749 53.3127L29.2296 53.6964L28.9183 52.9221L29.8635 52.5384Z" fill="#0D65BB"/>
<path d="M28.1912 53.0671L28.5026 53.8414L28.0975 54.0059L27.7861 53.2316L28.1912 53.0671Z" fill="#0D65BB"/>
<path d="M30.3936 51.1223L30.705 51.8966L29.8948 52.2255L29.5834 51.4512L30.3936 51.1223Z" fill="#0D65BB"/>
<path d="M31.0587 49.6514L31.3701 50.4257L30.5599 50.7546L30.2485 49.9803L31.0587 49.6514Z" fill="#0D65BB"/>
<path d="M31.5369 48.1062L31.8483 48.8805L31.0381 49.2094L30.7267 48.4351C30.6852 48.3319 31.2495 48.1728 31.5369 48.1062Z" fill="#0D65BB"/>
<path d="M32.0151 46.561L32.3265 47.3353L31.5163 47.6642L31.2049 46.8899L32.0151 46.561Z" fill="#0D65BB"/>
<path d="M32.3064 44.9416L32.6177 45.7159L31.6725 46.0996L31.3611 45.3253L32.3064 44.9416Z" fill="#0D65BB"/>
<path d="M31.8287 44.5351L31.4624 43.4097L31.7072 43.4057L33.0361 44.2837L31.8287 44.5351Z" fill="#0D65BB"/>
<path d="M30.9253 43.851L31.2886 44.7543L30.3433 45.138L29.9801 44.2347L30.9253 43.851Z" fill="#0D65BB"/>
<path d="M30.5075 42.3826L31.3307 43.1179L30.5827 43.3896L30.2195 42.4862L30.5075 42.3826Z" fill="#0D65BB"/>
<path d="M30.5509 45.6542L30.8623 46.4285L29.917 46.8123L29.6057 46.038L30.5509 45.6542Z" fill="#0D65BB"/>
<path d="M30.0727 47.1994L30.3841 47.9737L29.5739 48.3026L29.2625 47.5283L30.0727 47.1994Z" fill="#0D65BB"/>
<path d="M29.7815 48.8188L30.0409 49.4641L29.3658 49.7381L29.1063 49.0929L29.7815 48.8188Z" fill="#0D65BB"/>
<path d="M29.1476 49.9768L29.5108 50.8802L28.7006 51.2091L28.3374 50.3057L29.1476 49.9768Z" fill="#0D65BB"/>
<path d="M28.7213 51.651L28.9808 52.2963L28.1706 52.6252L27.9111 51.9799L28.7213 51.651Z" fill="#0D65BB"/>
<path d="M27.3191 52.0701L27.6304 52.8444L27.2253 53.0089L26.914 52.2346L27.3191 52.0701Z" fill="#0D65BB"/>
<path d="M29.7467 41.3312L30.2916 42.0287L29.5236 42.3184L29.2123 41.5441L29.7467 41.3312Z" fill="#0D65BB"/>
<path d="M29.6793 42.7055L30.0426 43.6089L29.2324 43.9377L28.8691 43.0344L29.6793 42.7055Z" fill="#0D65BB"/>
<path d="M29.3881 44.3249L29.6994 45.0992L28.8892 45.4281L28.5778 44.6538L29.3881 44.3249Z" fill="#0D65BB"/>
<path d="M28.9099 45.8701L29.2212 46.6444L28.5461 46.9184L28.2347 46.1441L28.9099 45.8701Z" fill="#0D65BB"/>
<path d="M28.4317 47.4152L28.743 48.1895L28.0679 48.4636L27.7565 47.6893L28.4317 47.4152Z" fill="#0D65BB"/>
<path d="M27.9535 48.9604L28.2129 49.6056L27.5378 49.8797L27.2783 49.2345L27.9535 48.9604Z" fill="#0D65BB"/>
<path d="M27.4753 50.5055L27.7867 51.2798L27.1115 51.5539L26.8001 50.7796L27.4753 50.5055Z" fill="#0D65BB"/>
<path d="M26.1562 50.7408L26.4676 51.5151L26.0625 51.6795L25.7511 50.9052L26.1562 50.7408Z" fill="#0D65BB"/>
<path d="M28.8676 40.1612L29.4098 40.8634L28.5996 41.1923L28.2882 40.418L28.8676 40.1612Z" fill="#0D65BB"/>
<path d="M28.6721 41.7633L28.9316 42.4086L28.2564 42.6826L27.997 42.0374L28.6721 41.7633Z" fill="#0D65BB"/>
<path d="M28.1939 43.3085L28.5053 44.0828L27.8301 44.3569L27.5188 43.5826L28.1939 43.3085Z" fill="#0D65BB"/>
<path d="M27.8508 44.7988L28.1103 45.4441L27.4351 45.7182L27.1756 45.0729L27.8508 44.7988Z" fill="#0D65BB"/>
<path d="M27.2688 46.0859L27.5802 46.8602L26.905 47.1343L26.5936 46.36L27.2688 46.0859Z" fill="#0D65BB"/>
<path d="M26.8425 47.7601L27.1539 48.5344L26.4787 48.8085L26.1673 48.0342L26.8425 47.7601Z" fill="#0D65BB"/>
<path d="M26.3643 49.3053L26.6757 50.0796L26.0005 50.3536L25.6891 49.5793L26.3643 49.3053Z" fill="#0D65BB"/>
<path d="M25.284 49.7438L25.5954 50.5181L25.1903 50.6825L24.8789 49.9082L25.284 49.7438Z" fill="#0D65BB"/>
<path d="M28.1699 39.1766L28.6414 39.8215L27.7274 40.1953L27.4161 39.421L28.1699 39.1766Z" fill="#0D65BB"/>
<path d="M27.8831 40.5824L28.1945 41.3567L27.3843 41.6856L27.0729 40.9113L27.8831 40.5824Z" fill="#0D65BB"/>
<path d="M27.353 41.9986L27.6644 42.7729L26.7192 43.1566L26.4078 42.3823L27.353 41.9986Z" fill="#0D65BB"/>
<path d="M26.8748 43.5437L27.1862 44.318L26.241 44.7017L25.9296 43.9274L26.8748 43.5437Z" fill="#0D65BB"/>
<path d="M26.3967 45.0889L26.708 45.8632L25.7628 46.2469L25.4514 45.4726L26.3967 45.0889Z" fill="#0D65BB"/>
<path d="M25.9185 46.634L26.2298 47.4083L25.4196 47.7372L25.1083 46.9629L25.9185 46.634Z" fill="#0D65BB"/>
<path d="M25.5753 48.1244L25.8867 48.8987L25.0765 49.2276L24.7651 48.4533L25.5753 48.1244Z" fill="#0D65BB"/>
<path d="M23.7447 48.9182L24.1167 48.674L24.3799 49.1213L24.5348 49.4566L24.2242 49.6713L23.7447 48.9182Z" fill="#0D65BB"/>
<path d="M26.6472 40.6338L27.3223 40.3597L27.011 39.5854L26.3358 39.8595L26.6472 40.6338Z" fill="#0D65BB"/>
<path d="M26.4809 41.0015L26.7923 41.7759L25.9821 42.1047L25.6707 41.3304L26.4809 41.0015Z" fill="#0D65BB"/>
<path d="M26.0027 42.5467L26.3141 43.321L25.5039 43.6499L25.1925 42.8756L26.0027 42.5467Z" fill="#0D65BB"/>
<path d="M25.5245 44.0919L25.784 44.7371L24.9738 45.066L24.7143 44.4208L25.5245 44.0919Z" fill="#0D65BB"/>
<path d="M24.9944 45.508L25.3058 46.2823L24.4956 46.6112L24.1842 45.8369L24.9944 45.508Z" fill="#0D65BB"/>
<path d="M24.7032 47.1274L25.0145 47.9017L24.2043 48.2306L23.893 47.4563L24.7032 47.1274Z" fill="#0D65BB"/>
<path d="M23.2875 47.6267L23.7358 48.272L23.4492 48.5397L22.8679 47.8256L23.2875 47.6267Z" fill="#0D65BB"/>
<path d="M27.3293 37.9756L27.9356 38.7598L27.2604 39.0338L26.949 38.2595L27.3293 37.9756Z" fill="#0D65BB"/>
<path d="M26.5439 38.424L26.8553 39.1983L25.9101 39.582L25.5987 38.8077L26.5439 38.424Z" fill="#0D65BB"/>
<path d="M25.7438 39.9497L26.0551 40.724L25.38 40.9981L25.0686 40.2238L25.7438 39.9497Z" fill="#0D65BB"/>
<path d="M25.2137 41.3658L25.5251 42.1401L24.7149 42.469L24.4035 41.6947L25.2137 41.3658Z" fill="#0D65BB"/>
<path d="M24.6005 42.9658L24.9118 43.7401L24.2367 44.0142L23.9253 43.2399L24.6005 42.9658Z" fill="#0D65BB"/>
<path d="M24.1223 44.511L24.4336 45.2853L23.7585 45.5594L23.4471 44.7851L24.1223 44.511Z" fill="#0D65BB"/>
<path d="M23.7791 46.0013L24.0905 46.7756L23.2803 47.1045L22.9689 46.3302L23.7791 46.0013Z" fill="#0D65BB"/>
<path d="M22.4072 46.5094L22.8607 47.2971L22.6601 47.3902C22.5637 47.4349 22.4493 47.3963 22.3998 47.3023L22.0567 46.6513L22.4072 46.5094Z" fill="#0D65BB"/>
<path d="M25.1417 38.8431L25.505 39.7464L24.6948 40.0753L24.3315 39.172L25.1417 38.8431Z" fill="#0D65BB"/>
<path d="M24.5285 40.4431L24.8398 41.2174L24.0296 41.5463L23.7183 40.772L24.5285 40.4431Z" fill="#0D65BB"/>
<path d="M23.9984 41.8592L24.3098 42.6335L23.4996 42.9624L23.1882 42.1881L23.9984 41.8592Z" fill="#0D65BB"/>
<path d="M23.5202 43.4043L23.8316 44.1786L23.0214 44.5075L22.71 43.7332L23.5202 43.4043Z" fill="#0D65BB"/>
<path d="M22.9901 44.8204L23.3534 45.7238L22.469 46.0828L22.1057 45.1794L22.9901 44.8204Z" fill="#0D65BB"/>
<path d="M21.7748 45.3138L22.1381 46.2171L21.8926 46.3168C21.8008 46.354 21.6959 46.3185 21.6457 46.2331L21.2739 45.6003L21.7748 45.3138Z" fill="#0D65BB"/>
<path d="M22.3049 43.8977L22.6163 44.672L21.8061 45.0009L21.4947 44.2266L22.3049 43.8977Z" fill="#0D65BB"/>
<path d="M21.0001 44.2347L21.4207 45.1907L21.1526 45.2892C21.0514 45.3264 20.9392 45.2765 20.8989 45.1765L20.6078 44.4526L21.0001 44.2347Z" fill="#0D65BB"/>
<path d="M22.7831 42.3525L23.0944 43.1268L22.2842 43.4557L21.9729 42.6814L22.7831 42.3525Z" fill="#0D65BB"/>
<path d="M21.7028 42.791L22.0142 43.5653L21.204 43.8942L20.8926 43.1199L21.7028 42.791Z" fill="#0D65BB"/>
<path d="M20.4356 43.1553L20.747 43.9296L20.4498 44.1849L19.9731 43.4628L20.4356 43.1553Z" fill="#0D65BB"/>
<path d="M23.3963 40.7525L23.7077 41.5268L22.8975 41.8557L22.5861 41.0814L23.3963 40.7525Z" fill="#0D65BB"/>
<path d="M22.181 41.2459L22.4924 42.0202L21.6822 42.3491L21.3708 41.5748L22.181 41.2459Z" fill="#0D65BB"/>
<path d="M20.9657 41.7392L21.2771 42.5135L20.4669 42.8424L20.1555 42.0681L20.9657 41.7392Z" fill="#0D65BB"/>
<path d="M19.8854 42.1777L20.1968 42.952L19.7917 43.1165L19.381 42.4086L19.8854 42.1777Z" fill="#0D65BB"/>
<path d="M24.0614 39.2816C24.1029 39.515 24.2233 39.9965 24.3728 40.0559L23.5626 40.3848L23.2512 39.6105L24.0614 39.2816Z" fill="#0D65BB"/>
<path d="M22.8461 39.775L23.1575 40.5493L22.2122 40.933L21.9009 40.1587L22.8461 39.775Z" fill="#0D65BB"/>
<path d="M21.6308 40.2683L21.9422 41.0426L21.132 41.3715L20.8206 40.5972L21.6308 40.2683Z" fill="#0D65BB"/>
<path d="M20.5505 40.7068L20.8619 41.4811L20.0517 41.81L19.7403 41.0357L20.5505 40.7068Z" fill="#0D65BB"/>
<path d="M19.4703 41.1453L19.7816 41.9196L19.3765 42.0841L19.0652 41.3098L19.4703 41.1453Z" fill="#0D65BB"/>
<path d="M26.5642 36.9022L27.1126 37.5942L26.5233 37.982L26.2119 37.2077L26.5642 36.9022Z" fill="#0D65BB"/>
<path d="M25.8068 37.3722L26.1182 38.1465L25.308 38.4754L24.9966 37.7011L25.8068 37.3722Z" fill="#0D65BB"/>
<path d="M24.5915 37.8655L24.9029 38.6398L24.0927 38.9687L23.7813 38.1944L24.5915 37.8655Z" fill="#0D65BB"/>
<path d="M23.5112 38.304L23.8226 39.0783L23.0124 39.4072L22.701 38.6329L23.5112 38.304Z" fill="#0D65BB"/>
<path d="M22.2959 38.7974L22.6073 39.5717L21.7971 39.9006L21.4857 39.1263L22.2959 38.7974Z" fill="#0D65BB"/>
<path d="M21.2157 39.2359L21.527 40.0102L20.7168 40.3391L20.4055 39.5648L21.2157 39.2359Z" fill="#0D65BB"/>
<path d="M20.1354 39.6744L20.4468 40.4487L19.5015 40.8324L19.1902 40.0581L20.1354 39.6744Z" fill="#0D65BB"/>
<path d="M18.9614 41.0517L19.3665 40.8872L19.0551 40.1129L18.65 40.2774L18.9614 41.0517Z" fill="#0D65BB"/>
<g filter="url(#filter0_d)">
<path d="M5.15437 16.0724L0.973991 6.25519L20.317 5.62605C24.1178 5.50244 28.0956 5.50935 31.3723 7.43902C39.9669 12.5003 41.5039 24.4753 33.5573 31.9504L4.15647 53.3103L4.63952 39.6246L20.6209 27.854C24.732 24.8262 30.1055 18.8264 25.5131 16.5951C25.157 16.4221 24.7755 16.3233 24.3821 16.3165L5.15437 16.0724Z" fill="#1F8EFA"/>
</g>
<defs>
<filter id="filter0_d" x="-9.84619" y="0.198242" width="58.8468" height="68.7057" filterUnits="userSpaceOnUse" color-interpolation-filters="sRGB">
<feFlood flood-opacity="0" result="BackgroundImageFix"/>
<feColorMatrix in="SourceAlpha" type="matrix" values="0 0 0 0 0 0 0 0 0 0 0 0 0 0 0 0 0 0 127 0" result="hardAlpha"/>
<feOffset dy="5"/>
<feGaussianBlur stdDeviation="5"/>
<feComposite in2="hardAlpha" operator="out"/>
<feColorMatrix type="matrix" values="0 0 0 0 0 0 0 0 0 0 0 0 0 0 0 0 0 0 0.25 0"/>
<feBlend mode="normal" in2="BackgroundImageFix" result="effect1_dropShadow"/>
<feBlend mode="normal" in="SourceGraphic" in2="effect1_dropShadow" result="shape"/>
</filter>
<linearGradient id="paint0_linear" x1="24.1611" y1="44.199" x2="15.2201" y2="39.3389" gradientUnits="userSpaceOnUse">
<stop stop-color="#0C67C0" stop-opacity="0.04"/>
<stop offset="0.766921" stop-color="#0C67C0"/>
</linearGradient>
<linearGradient id="paint1_linear" x1="24.1611" y1="44.199" x2="15.2201" y2="39.3389" gradientUnits="userSpaceOnUse">
<stop stop-color="#0C67C0" stop-opacity="0.04"/>
<stop offset="0.766921" stop-color="#0C67C0"/>
</linearGradient>
</defs>
</svg>
